# xmcd
#
# Track frame offsets: 
#        150
#        10522
#        21180
#        31407
#        43587
#        53790
#        67535
#        78860
#        90135
#        101042
#        111247
#        122527
#        133890
#        145082
#        155810
#        166635
#        178390
#        189362
#        200235
#        209732
#        219262
#        231125
#        245187
#        257597
#        269215
#        278895
#        290820
#        301427
#        312647
#        324835
#        335852
#
# Disc length: 4640 seconds
#
# Revision: 0
# Processed by: cddbd v1.5.2PL0 Copyright (c) Steve Scherf et al.
# Submitted via: ExactAudioCopy v0.99pb4
#
DISCID=d1121e1f
DTITLE=Charlie Monroe - I'm Old Kentucky Bound - Disc 3
DYEAR=2007
DGENRE=Country
TTITLE0=Gonna Shake Hands With Mother Over There (2007)
TTITLE1=Gonna Shake Hands With Mother Over There
TTITLE2=Springtime In Glory
TTITLE3=So Blue
TTITLE4=Sugar Cane Mama
TTITLE5=Down In Caroline
TTITLE6=I Know He's Been Dealing With Me
TTITLE7=I Know He's Been Dealing With Me (2007)
TTITLE8=You'd Better be Somewhere Praying
TTITLE9=You'll Fine Me There
TTITLE10='Neath A Cold Grey Tomb Of Stone (2007)
TTITLE11='Neath A Cold Grey Tomb Of Stone
TTITLE12=Good Morning To You
TTITLE13=I'm Gonna Sing, Sing, Sing (2007)
TTITLE14=I'm Gonna Sing, Sing, Sing
TTITLE15=Gold Star Mother
TTITLE16=Jesus Is Calling (2007)
TTITLE17=Jesus Is Calling
TTITLE18=My Lord's Gonna Move This Wicked Race (2007)
TTITLE19=My Lord's Gonna Move This Wicked Race
TTITLE20=That Wild Black Engine
TTITLE21=You'll Find Her Name Written There (2007)
TTITLE22=You'll Find Her Name Written There
TTITLE23=An Angel In Disguise
TTITLE24=Find 'Em, Fool 'Em And Leave 'Em Alone
TTITLE25=I'm Old Kentucky Bound
TTITLE26=These Triflin' Women
TTITLE27=Why Did You Say Goodbye
TTITLE28=I'm Weary Of Heartaches
TTITLE29=That's What I Like About You
TTITLE30=Weep And Cry
EXTD=
EXTT0=
EXTT1=
EXTT2=
EXTT3=
EXTT4=
EXTT5=
EXTT6=
EXTT7=
EXTT8=
EXTT9=
EXTT10=
EXTT11=
EXTT12=
EXTT13=
EXTT14=
EXTT15=
EXTT16=
EXTT17=
EXTT18=
EXTT19=
EXTT20=
EXTT21=
EXTT22=
EXTT23=
EXTT24=
EXTT25=
EXTT26=
EXTT27=
EXTT28=
EXTT29=
EXTT30=
PLAYORDER=
